<svg viewBox="0 0 4209 578" role="img" aria-label="NEVU NEXT logo, side by side" width="4209" height="578" xmlns:xlink="http://www.w3.org/1999/xlink" xmlns="http://www.w3.org/2000/svg">
  <defs>
    <linearGradient id="a" x1="0" y1="0" x2=".65" y2="1">
      <stop offset="0%" stop-color="#818CF8"/>
      <stop offset="100%" stop-color="#4F46E5"/>
    </linearGradient>
    <linearGradient id="b" x1="0" y1="0" x2="1" y2="1">
      <stop offset="0%" stop-color="#8B95F8"/>
      <stop offset="100%" stop-color="#5B54EA"/>
    </linearGradient>
    <linearGradient xlink:href="#a" id="h" x1="-.249" y1="452.235" x2="335.835" y2="503.715" gradientTransform="matrix(.98769 0 0 1.01247 2159.914 -498.3)" gradientUnits="userSpaceOnUse"/>
    <linearGradient xlink:href="#a" id="i" x1="982.673" y1="48.849" x2="886.6" y2="480.38" gradientTransform="matrix(.95314 0 0 1.04917 2159.914 -498.3)" gradientUnits="userSpaceOnUse"/>
    <linearGradient xlink:href="#a" id="j" x1="394.848" y1="434.871" x2="486.772" y2="576.292" gradientTransform="matrix(1.76777 0 0 .56569 2159.914 -498.3)" gradientUnits="userSpaceOnUse"/>
    <linearGradient xlink:href="#a" id="g" x1="32.535" y1="88.13" x2="454.135" y2="736.745" gradientTransform="scale(1.44462 .69223)" gradientUnits="userSpaceOnUse"/>
    <linearGradient xlink:href="#b" id="o" x1="849.057" y1="-138.239" x2="556.522" y2="1432.82" gradientTransform="matrix(.2904 0 0 -.2962 1517.094 1002)" gradientUnits="userSpaceOnUse"/>
    <linearGradient xlink:href="#a" id="d" x1="47.586" y1="60.255" x2="335.835" y2="503.715" gradientTransform="scale(.98769 1.01247)" gradientUnits="userSpaceOnUse"/>
    <linearGradient xlink:href="#a" id="e" x1="615.862" y1="63.86" x2="886.6" y2="480.38" gradientTransform="scale(.95314 1.04917)" gradientUnits="userSpaceOnUse"/>
    <linearGradient xlink:href="#a" id="f" x1="394.848" y1="434.871" x2="486.772" y2="576.292" gradientTransform="scale(1.76777 .56569)" gradientUnits="userSpaceOnUse"/>
    <linearGradient xlink:href="#a" id="c" x1="32.535" y1="88.13" x2="454.135" y2="736.745" gradientTransform="scale(1.44462 .69223)" gradientUnits="userSpaceOnUse"/>
    <linearGradient xlink:href="#a" id="k" x1="981.582" y1="70.032" x2="1282.562" y2="533.078" gradientTransform="matrix(1.04525 0 0 .9567 0 -6.15)" gradientUnits="userSpaceOnUse"/>
    <linearGradient xlink:href="#a" id="l" x1="1559" y1="67" x2="1843.05" y2="504" gradientUnits="userSpaceOnUse" gradientTransform="translate(0 -3.15)"/>
    <linearGradient xlink:href="#b" id="n" x1="16.741" y1="0" x2="1440.781" y2="1424.04" gradientTransform="scale(.95573 1.04632)" gradientUnits="userSpaceOnUse"/>
    <linearGradient xlink:href="#b" id="m" x1="736.757" y1="821.517" x2="1372.162" y2="1456.922" gradientTransform="scale(1.45401 .68775)" gradientUnits="userSpaceOnUse"/>
  </defs>
  <g fill="none" stroke="url(#c)" stroke-linejoin="round" transform="translate(0 -3.15)" stroke-width="80">
    <path d="M87 504V101l358 369V67" stroke="url(#d)"/>
    <path d="M984 107H627v297q0 60 60 60h297" stroke="url(#e)"/>
    <path d="M698 286h250" stroke="url(#f)"/>
  </g>
  <g fill="none" stroke="url(#g)" stroke-linejoin="round" transform="translate(10.059 495.15)" stroke-width="80">
    <path d="M2246.914 5.7v-403l358 369v-403" stroke="url(#h)"/>
    <path d="M3143.914-391.3h-357v297q0 60 60 60h297" stroke="url(#i)"/>
    <path d="M2857.914-212.3h250" stroke="url(#j)"/>
  </g>
  <path d="M1026 60.85h89l153 314 154-314h88l-202 409q-14 34-40 34t-40-34z" fill="url(#k)"/>
  <path d="M1599 63.85v237c0 98 69 160 181 160h176v-397" fill="none" stroke="url(#l)" stroke-width="80" stroke-linejoin="round"/>
  <g fill="url(#m)" transform="translate(2159.914 -501.15)">
    <path d="M16 0h300l232 338c51 74 100 147 148 221 48-74 96-147 146-221L1070 0h307L849 770l489 720h-294l-187-276c-54-81-106-162-158-243-51 81-103 162-155 243l-184 276H58l493-728z" transform="matrix(.29329 0 0 -.29329 1066.562 1002)" fill="url(#n)"/>
    <path d="M1530.586 632.163H1702.6V1002h77.721V632.163h178.716v-67.164h-428.452z" fill="url(#o)"/>
  </g>
</svg>
